<svg width="51" height="51" viewBox="0 0 51 51" fill="none" xmlns="http://www.w3.org/2000/svg">
<path d="M25.6666 45.6667C14.6416 45.6667 5.66663 36.6917 5.66663 25.6667C5.66663 14.6417 14.6416 5.66675 25.6666 5.66675C36.6916 5.66675 45.6666 14.6417 45.6666 25.6667C45.6666 36.6917 36.6916 45.6667 25.6666 45.6667ZM25.6666 50.6667C39.4666 50.6667 50.6666 39.4667 50.6666 25.6667C50.6666 11.8667 39.4666 0.666748 25.6666 0.666748C11.8666 0.666748 0.666626 11.8667 0.666626 25.6667C0.666626 39.4667 11.8666 50.6667 25.6666 50.6667ZM23.1666 25.6667V35.6667H28.1666V25.6667H35.6666L25.6666 15.6667L15.6666 25.6667H23.1666Z" fill="#242423"/>
</svg>
