<svg width="59" height="59" viewBox="0 0 59 59" fill="none" xmlns="http://www.w3.org/2000/svg">
<g filter="url(#filter0_d)">
<path d="M29.6666 45.6667C18.6416 45.6667 9.66663 36.6917 9.66663 25.6667C9.66663 14.6417 18.6416 5.66675 29.6666 5.66675C40.6916 5.66675 49.6666 14.6417 49.6666 25.6667C49.6666 36.6917 40.6916 45.6667 29.6666 45.6667ZM29.6666 50.6667C43.4666 50.6667 54.6666 39.4667 54.6666 25.6667C54.6666 11.8667 43.4666 0.666748 29.6666 0.666748C15.8666 0.666748 4.66663 11.8667 4.66663 25.6667C4.66663 39.4667 15.8666 50.6667 29.6666 50.6667ZM27.1666 25.6667V35.6667H32.1666V25.6667H39.6666L29.6666 15.6667L19.6666 25.6667H27.1666Z" fill="#333533"/>
</g>
<defs>
<filter id="filter0_d" x="0.666626" y="0.666748" width="58" height="58" filterUnits="userSpaceOnUse" color-interpolation-filters="sRGB">
<feFlood flood-opacity="0" result="BackgroundImageFix"/>
<feColorMatrix in="SourceAlpha" type="matrix" values="0 0 0 0 0 0 0 0 0 0 0 0 0 0 0 0 0 0 127 0"/>
<feOffset dy="4"/>
<feGaussianBlur stdDeviation="2"/>
<feColorMatrix type="matrix" values="0 0 0 0 0 0 0 0 0 0 0 0 0 0 0 0 0 0 0.25 0"/>
<feBlend mode="normal" in2="BackgroundImageFix" result="effect1_dropShadow"/>
<feBlend mode="normal" in="SourceGraphic" in2="effect1_dropShadow" result="shape"/>
</filter>
</defs>
</svg>
