<svg width="207" height="139" viewBox="0 0 207 139" fill="none" xmlns="http://www.w3.org/2000/svg">
<path d="M183.84 106.936C184.267 106.467 184.8 106.232 185.44 106.232C185.824 106.232 186.165 106.36 186.464 106.616C186.763 106.872 186.912 107.192 186.912 107.576C186.912 108.344 186.635 109.069 186.08 109.752C183.264 113.251 179.339 115 174.304 115C169.312 115 165.536 113.656 162.976 110.968C160.459 108.237 159.2 104.483 159.2 99.704C159.2 94.2427 160.48 90.0827 163.04 87.224C165.6 84.3227 169.312 82.872 174.176 82.872C178.059 82.872 181.173 83.9813 183.52 86.2C185.867 88.4187 187.04 91.5973 187.04 95.736C187.04 97.8267 185.824 98.872 183.392 98.872H166.176C166.133 99.2133 166.112 99.6827 166.112 100.28C166.112 103.949 166.837 106.851 168.288 108.984C169.739 111.117 171.979 112.184 175.008 112.184C177.056 112.184 178.677 111.757 179.872 110.904C181.067 110.051 181.984 109.24 182.624 108.472C183.264 107.661 183.669 107.149 183.84 106.936ZM173.792 85.432C171.744 85.432 170.059 86.3067 168.736 88.056C167.413 89.8053 166.624 92.5147 166.368 96.184H178.336C179.104 96.184 179.659 96.056 180 95.8C180.341 95.5013 180.512 95.0107 180.512 94.328C180.512 91.4693 179.829 89.272 178.464 87.736C177.141 86.2 175.584 85.432 173.792 85.432Z" fill="#242423"/>
<path d="M151.08 81.192C151.891 81.192 152.531 81.4267 153 81.896C153.469 82.3653 153.704 82.984 153.704 83.752V110.888C153.704 115.539 152.509 119.037 150.12 121.384C147.731 123.773 144.189 124.968 139.496 124.968C134.931 124.968 131.133 124.072 128.104 122.28C126.568 121.427 125.8 120.445 125.8 119.336C125.8 118.739 125.949 118.248 126.248 117.864C126.589 117.48 127.016 117.288 127.528 117.288C127.955 117.288 128.723 117.587 129.832 118.184C131.325 118.952 132.797 119.571 134.248 120.04C135.699 120.509 137.427 120.744 139.432 120.744C142.461 120.744 144.744 119.933 146.28 118.312C147.816 116.733 148.584 114.408 148.584 111.336V105.832C147.688 107.837 146.301 109.373 144.424 110.44C142.589 111.507 140.413 112.04 137.896 112.04C135.165 112.04 132.733 111.4 130.6 110.12C128.509 108.84 126.867 107.027 125.672 104.68C124.52 102.333 123.944 99.624 123.944 96.552C123.944 93.48 124.52 90.7707 125.672 88.424C126.867 86.0773 128.509 84.264 130.6 82.984C132.733 81.704 135.165 81.064 137.896 81.064C140.371 81.064 142.525 81.5973 144.36 82.664C146.195 83.7307 147.581 85.2453 148.52 87.208V83.752C148.52 82.984 148.733 82.3653 149.16 81.896C149.629 81.4267 150.269 81.192 151.08 81.192ZM138.92 107.752C141.907 107.752 144.253 106.771 145.96 104.808C147.667 102.803 148.52 100.051 148.52 96.552C148.52 93.096 147.667 90.3867 145.96 88.424C144.296 86.4187 141.949 85.416 138.92 85.416C135.891 85.416 133.501 86.4187 131.752 88.424C130.045 90.3867 129.192 93.096 129.192 96.552C129.192 100.051 130.045 102.803 131.752 104.808C133.501 106.771 135.891 107.752 138.92 107.752Z" fill="#242423"/>
<path d="M104.064 110.384C101.344 110.384 99.472 109.488 98.448 107.696C97.456 105.872 96.96 103.28 96.96 99.92C96.96 97.168 97.312 95.056 98.016 93.584C98.752 92.112 99.76 91.04 101.04 90.368C102.32 89.664 104.272 88.896 106.896 88.064L109.2 87.296V87.2V83.696C109.2 82.768 109.008 82.064 108.624 81.584C108.272 81.072 107.84 80.816 107.328 80.816C106.88 80.816 106.48 81.024 106.128 81.44C105.808 81.856 105.648 82.416 105.648 83.12V85.232H97.488V84.08C97.488 80.624 98.288 78.16 99.888 76.688C101.52 75.216 104.16 74.48 107.808 74.48C110.72 74.48 113.088 75.248 114.912 76.784C116.736 78.288 117.648 80.432 117.648 83.216V110H109.296V105.824C108.88 107.264 108.208 108.384 107.28 109.184C106.384 109.984 105.312 110.384 104.064 110.384ZM107.376 103.856C108.016 103.856 108.464 103.6 108.72 103.088C109.008 102.544 109.152 101.888 109.152 101.12V91.328C107.904 91.808 106.976 92.416 106.368 93.152C105.792 93.888 105.504 94.912 105.504 96.224V100.736C105.504 102.816 106.128 103.856 107.376 103.856Z" fill="#242423"/>
<path d="M40.688 110V106.032H46.064V87.664L39.92 85.552L41.264 81.584L49.712 84.528C50.9067 83.632 52.272 82.928 53.808 82.416C55.3867 81.8613 56.9013 81.584 58.352 81.584C62.6613 81.584 65.7333 82.6933 67.568 84.912C68.6347 83.9307 70.0213 83.1413 71.728 82.544C73.4347 81.904 75.0773 81.584 76.656 81.584C80.5387 81.584 83.3333 82.4373 85.04 84.144C86.7893 85.8507 87.664 88.6027 87.664 92.4V106.032H93.04V110H79.792V106.032H82.672V93.424C82.672 90.608 82.1813 88.624 81.2 87.472C80.2613 86.2773 78.64 85.68 76.336 85.68C74.9707 85.68 73.6267 85.8933 72.304 86.32C71.024 86.704 70.0427 87.216 69.36 87.856V106.032H72.24V110H61.488V106.032H64.368V93.424C64.368 90.608 63.8773 88.624 62.896 87.472C61.9573 86.2773 60.336 85.68 58.032 85.68C56.6667 85.68 55.3227 85.8933 54 86.32C52.72 86.704 51.7387 87.216 51.056 87.856V106.032H53.936V110H40.688Z" fill="#242423"/>
<path d="M22.112 105.328H23.968C24.8213 105.328 25.4187 105.136 25.76 104.752C26.144 104.368 26.336 103.749 26.336 102.896V75.632C26.336 74.8213 26.144 74.2453 25.76 73.904C25.4187 73.52 24.8213 73.328 23.968 73.328H22.112V68.592H37.28V73.328H35.424C34.6133 73.328 34.016 73.52 33.632 73.904C33.2907 74.2453 33.12 74.8213 33.12 75.632V102.96C33.12 103.813 33.2907 104.432 33.632 104.816C34.016 105.157 34.6133 105.328 35.424 105.328H37.28V110H22.112V105.328Z" fill="#242423"/>
<path d="M152.688 63V59.032H158.064V40.664L151.92 38.552L153.264 34.584L161.712 37.528C162.907 36.632 164.272 35.928 165.808 35.416C167.387 34.8613 168.901 34.584 170.352 34.584C174.661 34.584 177.733 35.6933 179.568 37.912C180.635 36.9307 182.021 36.1413 183.728 35.544C185.435 34.904 187.077 34.584 188.656 34.584C192.539 34.584 195.333 35.4373 197.04 37.144C198.789 38.8507 199.664 41.6027 199.664 45.4V59.032H205.04V63H191.792V59.032H194.672V46.424C194.672 43.608 194.181 41.624 193.2 40.472C192.261 39.2773 190.64 38.68 188.336 38.68C186.971 38.68 185.627 38.8933 184.304 39.32C183.024 39.704 182.043 40.216 181.36 40.856V59.032H184.24V63H173.488V59.032H176.368V46.424C176.368 43.608 175.877 41.624 174.896 40.472C173.957 39.2773 172.336 38.68 170.032 38.68C168.667 38.68 167.323 38.8933 166 39.32C164.72 39.704 163.739 40.216 163.056 40.856V59.032H165.936V63H152.688Z" fill="#242423"/>
<path d="M148.072 51.76C148.072 55.344 147.176 57.9467 145.384 59.568C143.635 61.1893 140.904 62 137.192 62H136.36C132.648 62 129.896 61.1893 128.104 59.568C126.355 57.9467 125.48 55.344 125.48 51.76V40.24C125.48 36.656 126.355 34.0533 128.104 32.432C129.896 30.8107 132.648 30 136.36 30H137.192C140.904 30 143.635 30.8107 145.384 32.432C147.176 34.0533 148.072 36.656 148.072 40.24V51.76ZM142.632 38.96C142.632 37.6373 142.227 36.6133 141.416 35.888C140.605 35.1627 139.411 34.8 137.832 34.8H135.72C134.141 34.8 132.947 35.1627 132.136 35.888C131.325 36.6133 130.92 37.6373 130.92 38.96V53.04C130.92 54.3627 131.325 55.3867 132.136 56.112C132.947 56.8373 134.141 57.2 135.72 57.2H137.832C139.411 57.2 140.605 56.8373 141.416 56.112C142.227 55.3867 142.632 54.3627 142.632 53.04V38.96Z" fill="#242423"/>
<path d="M119.172 28.25V62H115.328V58.0156C114.516 59.2656 113.406 60.3594 112 61.2969C110.625 62.2344 109.047 62.7031 107.266 62.7031C105.266 62.7031 103.438 62.2031 101.781 61.2031C100.125 60.1719 98.7969 58.75 97.7969 56.9375C96.8281 55.125 96.3438 53.0312 96.3438 50.6562C96.3438 48.0625 96.8281 45.8281 97.7969 43.9531C98.7969 42.0781 100.156 40.6406 101.875 39.6406C103.594 38.6094 105.516 38.0938 107.641 38.0938C108.984 38.0938 110.344 38.4219 111.719 39.0781C113.125 39.7031 114.328 40.5781 115.328 41.7031V28.25H119.172ZM108.344 41.9375C106.656 41.9375 105.219 42.3594 104.031 43.2031C102.844 44.0156 101.922 45.0781 101.266 46.3906C100.641 47.7031 100.328 49.125 100.328 50.6562C100.328 52.1562 100.641 53.5469 101.266 54.8281C101.891 56.0781 102.766 57.0781 103.891 57.8281C105.047 58.5781 106.375 58.9531 107.875 58.9531C109.312 58.9531 110.594 58.5781 111.719 57.8281C112.844 57.0781 113.734 56.0469 114.391 54.7344C115.047 53.3906 115.359 51.8906 115.328 50.2344L115.281 45.7344C114.312 44.5156 113.266 43.5781 112.141 42.9219C111.047 42.2656 109.781 41.9375 108.344 41.9375Z" fill="#242423"/>
<path d="M91.3125 60.6562C91.3125 60.9062 91.2188 61.1875 91.0312 61.5C90.8646 61.7917 90.6146 61.9375 90.2812 61.9375C90.0938 61.9375 89.9479 61.8854 89.8438 61.7812C89.7396 61.6771 89.6354 61.625 89.5312 61.625C89.3854 61.625 89.2396 61.6771 89.0938 61.7812C88.9688 61.8854 88.75 61.9375 88.4375 61.9375C88.0208 61.9375 87.6562 61.7917 87.3438 61.5C87.0521 61.1875 86.8125 60.8021 86.625 60.3438C86.4375 59.8646 86.2917 59.3542 86.1875 58.8125C86.1042 58.25 86.0625 57.7292 86.0625 57.25C86.0625 56.3125 86.0938 55.25 86.1562 54.0625C86.2396 52.8542 86.3229 51.625 86.4062 50.375C86.5104 49.1042 86.5938 47.8438 86.6562 46.5938C86.7396 45.3438 86.7812 44.1875 86.7812 43.125C86.7812 41.7083 86.6875 40.6042 86.5 39.8125C86.3125 39.0208 85.9792 38.625 85.5 38.625C85.0417 38.6875 84.5729 39.0833 84.0938 39.8125C83.6146 40.5417 83.125 41.4792 82.625 42.625C82.125 43.75 81.6354 45.0312 81.1562 46.4688C80.6771 47.8854 80.2083 49.3438 79.75 50.8438C79.3125 52.3229 78.8958 53.7708 78.5 55.1875C78.1042 56.5833 77.75 57.8333 77.4375 58.9375C77.125 60.0417 76.8542 60.9375 76.625 61.625C76.3958 62.2917 76.2396 62.625 76.1562 62.625C75.9896 62.625 75.8646 62.5833 75.7812 62.5C75.6979 62.4375 75.6146 62.3646 75.5312 62.2812C75.4688 62.1979 75.3854 62.1146 75.2812 62.0312C75.1771 61.9688 75.0208 61.9375 74.8125 61.9375C74.625 61.9375 74.5 61.9583 74.4375 62C74.375 62.0417 74.3021 62.0938 74.2188 62.1562C74.1354 62.2188 74.0312 62.2708 73.9062 62.3125C73.7812 62.3542 73.5625 62.375 73.25 62.375C72.875 62.375 72.5 62.2812 72.125 62.0938C71.7708 61.9062 71.5938 61.6146 71.5938 61.2188C71.5938 60.9688 71.6354 60.4583 71.7188 59.6875C71.8021 58.8958 71.8958 57.9375 72 56.8125C72.125 55.6667 72.25 54.3958 72.375 53C72.5208 51.5833 72.6458 50.125 72.75 48.625C72.875 47.125 72.9792 45.625 73.0625 44.125C73.1458 42.625 73.1875 41.1979 73.1875 39.8438C73.1875 39.1771 73.1771 38.5625 73.1562 38C73.1354 37.4167 73.125 36.8646 73.125 36.3438C73.125 36.2188 73.1875 36.1562 73.3125 36.1562C73.5625 36.1562 73.75 36.2083 73.875 36.3125C74.0208 36.3958 74.125 36.4896 74.1875 36.5938C74.25 36.6979 74.2812 36.8021 74.2812 36.9062C74.3021 36.9896 74.3229 37.0312 74.3438 37.0312C74.4062 37.0312 74.4792 37 74.5625 36.9375C74.6458 36.8542 74.7292 36.7708 74.8125 36.6875C74.9167 36.6042 75.0104 36.5312 75.0938 36.4688C75.1771 36.3854 75.25 36.3438 75.3125 36.3438H75.625C75.9375 36.3438 76.1562 36.3021 76.2812 36.2188C76.4062 36.1146 76.4896 36.0104 76.5312 35.9062C76.5938 35.7812 76.6354 35.6771 76.6562 35.5938C76.6771 35.4896 76.7396 35.4375 76.8438 35.4375C76.9062 35.4375 76.9896 35.4896 77.0938 35.5938C77.2188 35.6771 77.3333 35.8333 77.4375 36.0625C77.5625 36.2708 77.6667 36.5521 77.75 36.9062C77.8333 37.2604 77.875 37.6875 77.875 38.1875C77.875 38.8542 77.8438 39.6979 77.7812 40.7188C77.7396 41.7396 77.6771 42.8333 77.5938 44C77.5312 45.1458 77.4688 46.3125 77.4062 47.5C77.3438 48.6667 77.3021 49.7292 77.2812 50.6875C77.5104 49.7917 77.7812 48.8021 78.0938 47.7188C78.4271 46.6146 78.8021 45.5 79.2188 44.375C79.6562 43.25 80.125 42.1562 80.625 41.0938C81.125 40.0104 81.6667 39.0521 82.25 38.2188C82.8333 37.3854 83.4479 36.7188 84.0938 36.2188C84.7396 35.6979 85.4167 35.4375 86.125 35.4375C87.25 35.4375 88.1667 35.6458 88.875 36.0625C89.6042 36.4792 90.1771 37.0521 90.5938 37.7812C91.0104 38.5104 91.2917 39.3646 91.4375 40.3438C91.6042 41.3229 91.6875 42.375 91.6875 43.5C91.6875 44.4583 91.6458 45.4688 91.5625 46.5312C91.4792 47.5729 91.3854 48.625 91.2812 49.6875C91.1979 50.7292 91.1146 51.7604 91.0312 52.7812C90.9688 53.8021 90.9375 54.7604 90.9375 55.6562C90.9375 56.7604 91 57.7604 91.125 58.6562C91.25 59.5312 91.3125 60.1979 91.3125 60.6562Z" fill="#242423"/>
<path d="M51.064 62.384C48.344 62.384 46.472 61.488 45.448 59.696C44.456 57.872 43.96 55.28 43.96 51.92C43.96 49.168 44.312 47.056 45.016 45.584C45.752 44.112 46.76 43.04 48.04 42.368C49.32 41.664 51.272 40.896 53.896 40.064L56.2 39.296V39.2V35.696C56.2 34.768 56.008 34.064 55.624 33.584C55.272 33.072 54.84 32.816 54.328 32.816C53.88 32.816 53.48 33.024 53.128 33.44C52.808 33.856 52.648 34.416 52.648 35.12V37.232H44.488V36.08C44.488 32.624 45.288 30.16 46.888 28.688C48.52 27.216 51.16 26.48 54.808 26.48C57.72 26.48 60.088 27.248 61.912 28.784C63.736 30.288 64.648 32.432 64.648 35.216V62H56.296V57.824C55.88 59.264 55.208 60.384 54.28 61.184C53.384 61.984 52.312 62.384 51.064 62.384ZM54.376 55.856C55.016 55.856 55.464 55.6 55.72 55.088C56.008 54.544 56.152 53.888 56.152 53.12V43.328C54.904 43.808 53.976 44.416 53.368 45.152C52.792 45.888 52.504 46.912 52.504 48.224V52.736C52.504 54.816 53.128 55.856 54.376 55.856Z" fill="#242423"/>
<path d="M21.9688 43.5938H11.2812V62H5.25V16.5H20.3125C25.4375 16.5 29.375 17.6667 32.125 20C34.8958 22.3333 36.2812 25.7292 36.2812 30.1875C36.2812 33.0208 35.5104 35.4896 33.9688 37.5938C32.4479 39.6979 30.3229 41.2708 27.5938 42.3125L38.2812 61.625V62H31.8438L21.9688 43.5938ZM11.2812 38.6875H20.5C23.4792 38.6875 25.8438 37.9167 27.5938 36.375C29.3646 34.8333 30.25 32.7708 30.25 30.1875C30.25 27.375 29.4062 25.2188 27.7188 23.7188C26.0521 22.2188 23.6354 21.4583 20.4688 21.4375H11.2812V38.6875Z" fill="#242423"/>
</svg>
