<svg width="438" height="309" viewBox="0 0 438 309" fill="none" xmlns="http://www.w3.org/2000/svg">
<g filter="url(#filter0_d)">
<path d="M398.64 233.856C399.6 232.8 400.8 232.272 402.24 232.272C403.104 232.272 403.872 232.56 404.544 233.136C405.216 233.712 405.552 234.432 405.552 235.296C405.552 237.024 404.928 238.656 403.68 240.192C397.344 248.064 388.512 252 377.184 252C365.952 252 357.456 248.976 351.696 242.928C346.032 236.784 343.2 228.336 343.2 217.584C343.2 205.296 346.08 195.936 351.84 189.504C357.6 182.976 365.952 179.712 376.896 179.712C385.632 179.712 392.64 182.208 397.92 187.2C403.2 192.192 405.84 199.344 405.84 208.656C405.84 213.36 403.104 215.712 397.632 215.712H358.896C358.8 216.48 358.752 217.536 358.752 218.88C358.752 227.136 360.384 233.664 363.648 238.464C366.912 243.264 371.952 245.664 378.768 245.664C383.376 245.664 387.024 244.704 389.712 242.784C392.4 240.864 394.464 239.04 395.904 237.312C397.344 235.488 398.256 234.336 398.64 233.856ZM376.032 185.472C371.424 185.472 367.632 187.44 364.656 191.376C361.68 195.312 359.904 201.408 359.328 209.664H386.256C387.984 209.664 389.232 209.376 390 208.8C390.768 208.128 391.152 207.024 391.152 205.488C391.152 199.056 389.616 194.112 386.544 190.656C383.568 187.2 380.064 185.472 376.032 185.472Z" fill="#333533"/>
</g>
<g filter="url(#filter1_d)">
<path d="M331.68 173.432C333.504 173.432 334.944 173.96 336 175.016C337.056 176.072 337.584 177.464 337.584 179.192V240.248C337.584 250.712 334.896 258.584 329.52 263.864C324.144 269.24 316.176 271.928 305.616 271.928C295.344 271.928 286.8 269.912 279.984 265.88C276.528 263.96 274.8 261.752 274.8 259.256C274.8 257.912 275.136 256.808 275.808 255.944C276.576 255.08 277.536 254.648 278.688 254.648C279.648 254.648 281.376 255.32 283.872 256.664C287.232 258.392 290.544 259.784 293.808 260.84C297.072 261.896 300.96 262.424 305.472 262.424C312.288 262.424 317.424 260.6 320.88 256.952C324.336 253.4 326.064 248.168 326.064 241.256V228.872C324.048 233.384 320.928 236.84 316.704 239.24C312.576 241.64 307.68 242.84 302.016 242.84C295.872 242.84 290.4 241.4 285.6 238.52C280.896 235.64 277.2 231.56 274.512 226.28C271.92 221 270.624 214.904 270.624 207.992C270.624 201.08 271.92 194.984 274.512 189.704C277.2 184.424 280.896 180.344 285.6 177.464C290.4 174.584 295.872 173.144 302.016 173.144C307.584 173.144 312.432 174.344 316.56 176.744C320.688 179.144 323.808 182.552 325.92 186.968V179.192C325.92 177.464 326.4 176.072 327.36 175.016C328.416 173.96 329.856 173.432 331.68 173.432ZM304.32 233.192C311.04 233.192 316.32 230.984 320.16 226.568C324 222.056 325.92 215.864 325.92 207.992C325.92 200.216 324 194.12 320.16 189.704C316.416 185.192 311.136 182.936 304.32 182.936C297.504 182.936 292.128 185.192 288.192 189.704C284.352 194.12 282.432 200.216 282.432 207.992C282.432 215.864 284.352 222.056 288.192 226.568C292.128 230.984 297.504 233.192 304.32 233.192Z" fill="#333533"/>
</g>
<g filter="url(#filter2_d)">
<path d="M233.128 244.768C227.688 244.768 223.944 242.976 221.896 239.392C219.912 235.744 218.92 230.56 218.92 223.84C218.92 218.336 219.624 214.112 221.032 211.168C222.504 208.224 224.52 206.08 227.08 204.736C229.64 203.328 233.544 201.792 238.792 200.128L243.4 198.592V198.4V191.392C243.4 189.536 243.016 188.128 242.248 187.168C241.544 186.144 240.68 185.632 239.656 185.632C238.76 185.632 237.96 186.048 237.256 186.88C236.616 187.712 236.296 188.832 236.296 190.24V194.464H219.976V192.16C219.976 185.248 221.576 180.32 224.776 177.376C228.04 174.432 233.32 172.96 240.616 172.96C246.44 172.96 251.176 174.496 254.824 177.568C258.472 180.576 260.296 184.864 260.296 190.432V244H243.592V235.648C242.76 238.528 241.416 240.768 239.56 242.368C237.768 243.968 235.624 244.768 233.128 244.768ZM239.752 231.712C241.032 231.712 241.928 231.2 242.44 230.176C243.016 229.088 243.304 227.776 243.304 226.24V206.656C240.808 207.616 238.952 208.832 237.736 210.304C236.584 211.776 236.008 213.824 236.008 216.448V225.472C236.008 229.632 237.256 231.712 239.752 231.712Z" fill="#333533"/>
</g>
<g filter="url(#filter3_d)">
<path d="M95.048 244V235.072H107.144V193.744L93.32 188.992L96.344 180.064L115.352 186.688C118.04 184.672 121.112 183.088 124.568 181.936C128.12 180.688 131.528 180.064 134.792 180.064C144.488 180.064 151.4 182.56 155.528 187.552C157.928 185.344 161.048 183.568 164.888 182.224C168.728 180.784 172.424 180.064 175.976 180.064C184.712 180.064 191 181.984 194.84 185.824C198.776 189.664 200.744 195.856 200.744 204.4V235.072H212.84V244H183.032V235.072H189.512V206.704C189.512 200.368 188.408 195.904 186.2 193.312C184.088 190.624 180.44 189.28 175.256 189.28C172.184 189.28 169.16 189.76 166.184 190.72C163.304 191.584 161.096 192.736 159.56 194.176V235.072H166.04V244H141.848V235.072H148.328V206.704C148.328 200.368 147.224 195.904 145.016 193.312C142.904 190.624 139.256 189.28 134.072 189.28C131 189.28 127.976 189.76 125 190.72C122.12 191.584 119.912 192.736 118.376 194.176V235.072H124.856V244H95.048Z" fill="#333533"/>
</g>
<g filter="url(#filter4_d)">
<path d="M49.752 233.488H53.928C55.848 233.488 57.192 233.056 57.96 232.192C58.824 231.328 59.256 229.936 59.256 228.016V166.672C59.256 164.848 58.824 163.552 57.96 162.784C57.192 161.92 55.848 161.488 53.928 161.488H49.752V150.832H83.88V161.488H79.704C77.88 161.488 76.536 161.92 75.672 162.784C74.904 163.552 74.52 164.848 74.52 166.672V228.16C74.52 230.08 74.904 231.472 75.672 232.336C76.536 233.104 77.88 233.488 79.704 233.488H83.88V244H49.752V233.488Z" fill="#333533"/>
</g>
<g filter="url(#filter5_d)">
<path d="M316.048 142V133.072H328.144V91.744L314.32 86.992L317.344 78.064L336.352 84.688C339.04 82.672 342.112 81.088 345.568 79.936C349.12 78.688 352.528 78.064 355.792 78.064C365.488 78.064 372.4 80.56 376.528 85.552C378.928 83.344 382.048 81.568 385.888 80.224C389.728 78.784 393.424 78.064 396.976 78.064C405.712 78.064 412 79.984 415.84 83.824C419.776 87.664 421.744 93.856 421.744 102.4V133.072H433.84V142H404.032V133.072H410.512V104.704C410.512 98.368 409.408 93.904 407.2 91.312C405.088 88.624 401.44 87.28 396.256 87.28C393.184 87.28 390.16 87.76 387.184 88.72C384.304 89.584 382.096 90.736 380.56 92.176V133.072H387.04V142H362.848V133.072H369.328V104.704C369.328 98.368 368.224 93.904 366.016 91.312C363.904 88.624 360.256 87.28 355.072 87.28C352 87.28 348.976 87.76 346 88.72C343.12 89.584 340.912 90.736 339.376 92.176V133.072H345.856V142H316.048Z" fill="#333533"/>
</g>
<g filter="url(#filter6_d)">
<path d="M313.912 122.96C313.912 131.024 311.896 136.88 307.864 140.528C303.928 144.176 297.784 146 289.432 146H287.56C279.208 146 273.016 144.176 268.984 140.528C265.048 136.88 263.08 131.024 263.08 122.96V97.04C263.08 88.976 265.048 83.12 268.984 79.472C273.016 75.824 279.208 74 287.56 74H289.432C297.784 74 303.928 75.824 307.864 79.472C311.896 83.12 313.912 88.976 313.912 97.04V122.96ZM301.672 94.16C301.672 91.184 300.76 88.88 298.936 87.248C297.112 85.616 294.424 84.8 290.872 84.8H286.12C282.568 84.8 279.88 85.616 278.056 87.248C276.232 88.88 275.32 91.184 275.32 94.16V125.84C275.32 128.816 276.232 131.12 278.056 132.752C279.88 134.384 282.568 135.2 286.12 135.2H290.872C294.424 135.2 297.112 134.384 298.936 132.752C300.76 131.12 301.672 128.816 301.672 125.84V94.16Z" fill="#333533"/>
</g>
<g filter="url(#filter7_d)">
<path d="M257.516 40.75V142H245.984V130.047C243.547 133.797 240.219 137.078 236 139.891C231.875 142.703 227.141 144.109 221.797 144.109C215.797 144.109 210.312 142.609 205.344 139.609C200.375 136.516 196.391 132.25 193.391 126.812C190.484 121.375 189.031 115.094 189.031 107.969C189.031 100.188 190.484 93.4844 193.391 87.8594C196.391 82.2344 200.469 77.9219 205.625 74.9219C210.781 71.8281 216.547 70.2812 222.922 70.2812C226.953 70.2812 231.031 71.2656 235.156 73.2344C239.375 75.1094 242.984 77.7344 245.984 81.1094V40.75H257.516ZM225.031 81.8125C219.969 81.8125 215.656 83.0781 212.094 85.6094C208.531 88.0469 205.766 91.2344 203.797 95.1719C201.922 99.1094 200.984 103.375 200.984 107.969C200.984 112.469 201.922 116.641 203.797 120.484C205.672 124.234 208.297 127.234 211.672 129.484C215.141 131.734 219.125 132.859 223.625 132.859C227.938 132.859 231.781 131.734 235.156 129.484C238.531 127.234 241.203 124.141 243.172 120.203C245.141 116.172 246.078 111.672 245.984 106.703L245.844 93.2031C242.938 89.5469 239.797 86.7344 236.422 84.7656C233.141 82.7969 229.344 81.8125 225.031 81.8125Z" fill="#333533"/>
</g>
<g filter="url(#filter8_d)">
<path d="M183.953 135.977C183.953 136.539 183.742 137.172 183.32 137.875C182.945 138.531 182.383 138.859 181.633 138.859C181.211 138.859 180.883 138.742 180.648 138.508C180.414 138.273 180.18 138.156 179.945 138.156C179.617 138.156 179.289 138.273 178.961 138.508C178.68 138.742 178.188 138.859 177.484 138.859C176.547 138.859 175.727 138.531 175.023 137.875C174.367 137.172 173.828 136.305 173.406 135.273C172.984 134.195 172.656 133.047 172.422 131.828C172.234 130.562 172.141 129.391 172.141 128.312C172.141 126.203 172.211 123.812 172.352 121.141C172.539 118.422 172.727 115.656 172.914 112.844C173.148 109.984 173.336 107.148 173.477 104.336C173.664 101.523 173.758 98.9219 173.758 96.5312C173.758 93.3438 173.547 90.8594 173.125 89.0781C172.703 87.2969 171.953 86.4062 170.875 86.4062C169.844 86.5469 168.789 87.4375 167.711 89.0781C166.633 90.7188 165.531 92.8281 164.406 95.4062C163.281 97.9375 162.18 100.82 161.102 104.055C160.023 107.242 158.969 110.523 157.938 113.898C156.953 117.227 156.016 120.484 155.125 123.672C154.234 126.812 153.438 129.625 152.734 132.109C152.031 134.594 151.422 136.609 150.906 138.156C150.391 139.656 150.039 140.406 149.852 140.406C149.477 140.406 149.195 140.312 149.008 140.125C148.82 139.984 148.633 139.82 148.445 139.633C148.305 139.445 148.117 139.258 147.883 139.07C147.648 138.93 147.297 138.859 146.828 138.859C146.406 138.859 146.125 138.906 145.984 139C145.844 139.094 145.68 139.211 145.492 139.352C145.305 139.492 145.07 139.609 144.789 139.703C144.508 139.797 144.016 139.844 143.312 139.844C142.469 139.844 141.625 139.633 140.781 139.211C139.984 138.789 139.586 138.133 139.586 137.242C139.586 136.68 139.68 135.531 139.867 133.797C140.055 132.016 140.266 129.859 140.5 127.328C140.781 124.75 141.062 121.891 141.344 118.75C141.672 115.562 141.953 112.281 142.188 108.906C142.469 105.531 142.703 102.156 142.891 98.7812C143.078 95.4062 143.172 92.1953 143.172 89.1484C143.172 87.6484 143.148 86.2656 143.102 85C143.055 83.6875 143.031 82.4453 143.031 81.2734C143.031 80.9922 143.172 80.8516 143.453 80.8516C144.016 80.8516 144.438 80.9688 144.719 81.2031C145.047 81.3906 145.281 81.6016 145.422 81.8359C145.562 82.0703 145.633 82.3047 145.633 82.5391C145.68 82.7266 145.727 82.8203 145.773 82.8203C145.914 82.8203 146.078 82.75 146.266 82.6094C146.453 82.4219 146.641 82.2344 146.828 82.0469C147.062 81.8594 147.273 81.6953 147.461 81.5547C147.648 81.3672 147.812 81.2734 147.953 81.2734H148.656C149.359 81.2734 149.852 81.1797 150.133 80.9922C150.414 80.7578 150.602 80.5234 150.695 80.2891C150.836 80.0078 150.93 79.7734 150.977 79.5859C151.023 79.3516 151.164 79.2344 151.398 79.2344C151.539 79.2344 151.727 79.3516 151.961 79.5859C152.242 79.7734 152.5 80.125 152.734 80.6406C153.016 81.1094 153.25 81.7422 153.438 82.5391C153.625 83.3359 153.719 84.2969 153.719 85.4219C153.719 86.9219 153.648 88.8203 153.508 91.1172C153.414 93.4141 153.273 95.875 153.086 98.5C152.945 101.078 152.805 103.703 152.664 106.375C152.523 109 152.43 111.391 152.383 113.547C152.898 111.531 153.508 109.305 154.211 106.867C154.961 104.383 155.805 101.875 156.742 99.3438C157.727 96.8125 158.781 94.3516 159.906 91.9609C161.031 89.5234 162.25 87.3672 163.562 85.4922C164.875 83.6172 166.258 82.1172 167.711 80.9922C169.164 79.8203 170.688 79.2344 172.281 79.2344C174.812 79.2344 176.875 79.7031 178.469 80.6406C180.109 81.5781 181.398 82.8672 182.336 84.5078C183.273 86.1484 183.906 88.0703 184.234 90.2734C184.609 92.4766 184.797 94.8438 184.797 97.375C184.797 99.5312 184.703 101.805 184.516 104.195C184.328 106.539 184.117 108.906 183.883 111.297C183.695 113.641 183.508 115.961 183.32 118.258C183.18 120.555 183.109 122.711 183.109 124.727C183.109 127.211 183.25 129.461 183.531 131.477C183.812 133.445 183.953 134.945 183.953 135.977Z" fill="#333533"/>
</g>
<g filter="url(#filter9_d)">
<path d="M105.128 139.768C99.688 139.768 95.944 137.976 93.896 134.392C91.912 130.744 90.92 125.56 90.92 118.84C90.92 113.336 91.624 109.112 93.032 106.168C94.504 103.224 96.52 101.08 99.08 99.736C101.64 98.328 105.544 96.792 110.792 95.128L115.4 93.592V93.4V86.392C115.4 84.536 115.016 83.128 114.248 82.168C113.544 81.144 112.68 80.632 111.656 80.632C110.76 80.632 109.96 81.048 109.256 81.88C108.616 82.712 108.296 83.832 108.296 85.24V89.464H91.976V87.16C91.976 80.248 93.576 75.32 96.776 72.376C100.04 69.432 105.32 67.96 112.616 67.96C118.44 67.96 123.176 69.496 126.824 72.568C130.472 75.576 132.296 79.864 132.296 85.432V139H115.592V130.648C114.76 133.528 113.416 135.768 111.56 137.368C109.768 138.968 107.624 139.768 105.128 139.768ZM111.752 126.712C113.032 126.712 113.928 126.2 114.44 125.176C115.016 124.088 115.304 122.776 115.304 121.24V101.656C112.808 102.616 110.952 103.832 109.736 105.304C108.584 106.776 108.008 108.824 108.008 111.448V120.472C108.008 124.632 109.256 126.712 111.752 126.712Z" fill="#333533"/>
</g>
<g filter="url(#filter10_d)">
<path d="M49.4297 94.5859H25.3828V136H11.8125V33.625H45.7031C57.2344 33.625 66.0938 36.25 72.2812 41.5C78.5156 46.75 81.6328 54.3906 81.6328 64.4219C81.6328 70.7969 79.8984 76.3516 76.4297 81.0859C73.0078 85.8203 68.2266 89.3594 62.0859 91.7031L86.1328 135.156V136H71.6484L49.4297 94.5859ZM25.3828 83.5469H46.125C52.8281 83.5469 58.1484 81.8125 62.0859 78.3438C66.0703 74.875 68.0625 70.2344 68.0625 64.4219C68.0625 58.0938 66.1641 53.2422 62.3672 49.8672C58.6172 46.4922 53.1797 44.7813 46.0547 44.7344H25.3828V83.5469Z" fill="#333533"/>
</g>
<defs>
<filter id="filter0_d" x="339.2" y="179.712" width="70.64" height="80.288" filterUnits="userSpaceOnUse" color-interpolation-filters="sRGB">
<feFlood flood-opacity="0" result="BackgroundImageFix"/>
<feColorMatrix in="SourceAlpha" type="matrix" values="0 0 0 0 0 0 0 0 0 0 0 0 0 0 0 0 0 0 127 0"/>
<feOffset dy="4"/>
<feGaussianBlur stdDeviation="2"/>
<feColorMatrix type="matrix" values="0 0 0 0 0 0 0 0 0 0 0 0 0 0 0 0 0 0 0.25 0"/>
<feBlend mode="normal" in2="BackgroundImageFix" result="effect1_dropShadow"/>
<feBlend mode="normal" in="SourceGraphic" in2="effect1_dropShadow" result="shape"/>
</filter>
<filter id="filter1_d" x="266.624" y="173.144" width="74.96" height="106.784" filterUnits="userSpaceOnUse" color-interpolation-filters="sRGB">
<feFlood flood-opacity="0" result="BackgroundImageFix"/>
<feColorMatrix in="SourceAlpha" type="matrix" values="0 0 0 0 0 0 0 0 0 0 0 0 0 0 0 0 0 0 127 0"/>
<feOffset dy="4"/>
<feGaussianBlur stdDeviation="2"/>
<feColorMatrix type="matrix" values="0 0 0 0 0 0 0 0 0 0 0 0 0 0 0 0 0 0 0.25 0"/>
<feBlend mode="normal" in2="BackgroundImageFix" result="effect1_dropShadow"/>
<feBlend mode="normal" in="SourceGraphic" in2="effect1_dropShadow" result="shape"/>
</filter>
<filter id="filter2_d" x="214.92" y="172.96" width="49.376" height="79.808" filterUnits="userSpaceOnUse" color-interpolation-filters="sRGB">
<feFlood flood-opacity="0" result="BackgroundImageFix"/>
<feColorMatrix in="SourceAlpha" type="matrix" values="0 0 0 0 0 0 0 0 0 0 0 0 0 0 0 0 0 0 127 0"/>
<feOffset dy="4"/>
<feGaussianBlur stdDeviation="2"/>
<feColorMatrix type="matrix" values="0 0 0 0 0 0 0 0 0 0 0 0 0 0 0 0 0 0 0.25 0"/>
<feBlend mode="normal" in2="BackgroundImageFix" result="effect1_dropShadow"/>
<feBlend mode="normal" in="SourceGraphic" in2="effect1_dropShadow" result="shape"/>
</filter>
<filter id="filter3_d" x="89.32" y="180.064" width="127.52" height="71.936" filterUnits="userSpaceOnUse" color-interpolation-filters="sRGB">
<feFlood flood-opacity="0" result="BackgroundImageFix"/>
<feColorMatrix in="SourceAlpha" type="matrix" values="0 0 0 0 0 0 0 0 0 0 0 0 0 0 0 0 0 0 127 0"/>
<feOffset dy="4"/>
<feGaussianBlur stdDeviation="2"/>
<feColorMatrix type="matrix" values="0 0 0 0 0 0 0 0 0 0 0 0 0 0 0 0 0 0 0.25 0"/>
<feBlend mode="normal" in2="BackgroundImageFix" result="effect1_dropShadow"/>
<feBlend mode="normal" in="SourceGraphic" in2="effect1_dropShadow" result="shape"/>
</filter>
<filter id="filter4_d" x="45.752" y="150.832" width="42.128" height="101.168" filterUnits="userSpaceOnUse" color-interpolation-filters="sRGB">
<feFlood flood-opacity="0" result="BackgroundImageFix"/>
<feColorMatrix in="SourceAlpha" type="matrix" values="0 0 0 0 0 0 0 0 0 0 0 0 0 0 0 0 0 0 127 0"/>
<feOffset dy="4"/>
<feGaussianBlur stdDeviation="2"/>
<feColorMatrix type="matrix" values="0 0 0 0 0 0 0 0 0 0 0 0 0 0 0 0 0 0 0.25 0"/>
<feBlend mode="normal" in2="BackgroundImageFix" result="effect1_dropShadow"/>
<feBlend mode="normal" in="SourceGraphic" in2="effect1_dropShadow" result="shape"/>
</filter>
<filter id="filter5_d" x="310.32" y="78.064" width="127.52" height="71.936" filterUnits="userSpaceOnUse" color-interpolation-filters="sRGB">
<feFlood flood-opacity="0" result="BackgroundImageFix"/>
<feColorMatrix in="SourceAlpha" type="matrix" values="0 0 0 0 0 0 0 0 0 0 0 0 0 0 0 0 0 0 127 0"/>
<feOffset dy="4"/>
<feGaussianBlur stdDeviation="2"/>
<feColorMatrix type="matrix" values="0 0 0 0 0 0 0 0 0 0 0 0 0 0 0 0 0 0 0.25 0"/>
<feBlend mode="normal" in2="BackgroundImageFix" result="effect1_dropShadow"/>
<feBlend mode="normal" in="SourceGraphic" in2="effect1_dropShadow" result="shape"/>
</filter>
<filter id="filter6_d" x="259.08" y="74" width="58.832" height="80" filterUnits="userSpaceOnUse" color-interpolation-filters="sRGB">
<feFlood flood-opacity="0" result="BackgroundImageFix"/>
<feColorMatrix in="SourceAlpha" type="matrix" values="0 0 0 0 0 0 0 0 0 0 0 0 0 0 0 0 0 0 127 0"/>
<feOffset dy="4"/>
<feGaussianBlur stdDeviation="2"/>
<feColorMatrix type="matrix" values="0 0 0 0 0 0 0 0 0 0 0 0 0 0 0 0 0 0 0.25 0"/>
<feBlend mode="normal" in2="BackgroundImageFix" result="effect1_dropShadow"/>
<feBlend mode="normal" in="SourceGraphic" in2="effect1_dropShadow" result="shape"/>
</filter>
<filter id="filter7_d" x="185.031" y="40.75" width="76.4844" height="111.359" filterUnits="userSpaceOnUse" color-interpolation-filters="sRGB">
<feFlood flood-opacity="0" result="BackgroundImageFix"/>
<feColorMatrix in="SourceAlpha" type="matrix" values="0 0 0 0 0 0 0 0 0 0 0 0 0 0 0 0 0 0 127 0"/>
<feOffset dy="4"/>
<feGaussianBlur stdDeviation="2"/>
<feColorMatrix type="matrix" values="0 0 0 0 0 0 0 0 0 0 0 0 0 0 0 0 0 0 0.25 0"/>
<feBlend mode="normal" in2="BackgroundImageFix" result="effect1_dropShadow"/>
<feBlend mode="normal" in="SourceGraphic" in2="effect1_dropShadow" result="shape"/>
</filter>
<filter id="filter8_d" x="135.586" y="79.2344" width="53.2109" height="69.1719" filterUnits="userSpaceOnUse" color-interpolation-filters="sRGB">
<feFlood flood-opacity="0" result="BackgroundImageFix"/>
<feColorMatrix in="SourceAlpha" type="matrix" values="0 0 0 0 0 0 0 0 0 0 0 0 0 0 0 0 0 0 127 0"/>
<feOffset dy="4"/>
<feGaussianBlur stdDeviation="2"/>
<feColorMatrix type="matrix" values="0 0 0 0 0 0 0 0 0 0 0 0 0 0 0 0 0 0 0.25 0"/>
<feBlend mode="normal" in2="BackgroundImageFix" result="effect1_dropShadow"/>
<feBlend mode="normal" in="SourceGraphic" in2="effect1_dropShadow" result="shape"/>
</filter>
<filter id="filter9_d" x="86.92" y="67.96" width="49.376" height="79.808" filterUnits="userSpaceOnUse" color-interpolation-filters="sRGB">
<feFlood flood-opacity="0" result="BackgroundImageFix"/>
<feColorMatrix in="SourceAlpha" type="matrix" values="0 0 0 0 0 0 0 0 0 0 0 0 0 0 0 0 0 0 127 0"/>
<feOffset dy="4"/>
<feGaussianBlur stdDeviation="2"/>
<feColorMatrix type="matrix" values="0 0 0 0 0 0 0 0 0 0 0 0 0 0 0 0 0 0 0.25 0"/>
<feBlend mode="normal" in2="BackgroundImageFix" result="effect1_dropShadow"/>
<feBlend mode="normal" in="SourceGraphic" in2="effect1_dropShadow" result="shape"/>
</filter>
<filter id="filter10_d" x="7.8125" y="33.625" width="82.3203" height="110.375" filterUnits="userSpaceOnUse" color-interpolation-filters="sRGB">
<feFlood flood-opacity="0" result="BackgroundImageFix"/>
<feColorMatrix in="SourceAlpha" type="matrix" values="0 0 0 0 0 0 0 0 0 0 0 0 0 0 0 0 0 0 127 0"/>
<feOffset dy="4"/>
<feGaussianBlur stdDeviation="2"/>
<feColorMatrix type="matrix" values="0 0 0 0 0 0 0 0 0 0 0 0 0 0 0 0 0 0 0.25 0"/>
<feBlend mode="normal" in2="BackgroundImageFix" result="effect1_dropShadow"/>
<feBlend mode="normal" in="SourceGraphic" in2="effect1_dropShadow" result="shape"/>
</filter>
</defs>
</svg>
