<svg width="108" height="108" viewBox="0 0 108 108" fill="none" xmlns="http://www.w3.org/2000/svg">
<g filter="url(#filter0_d)">
<path d="M54 0C26.4 0 4 22.4 4 50C4 77.6 26.4 100 54 100C81.6 100 104 77.6 104 50C104 22.4 81.6 0 54 0ZM54 90C31.95 90 14 72.05 14 50C14 27.95 31.95 10 54 10C76.05 10 94 27.95 94 50C94 72.05 76.05 90 54 90ZM74.85 63.8L69.35 58.3C72.9 51.65 72 43.25 66.4 37.65C62.95 34.2 58.5 32.5 54 32.5C53.85 32.5 53.7 32.55 53.55 32.55L59 38L53.7 43.3L39.55 29.15L53.7 15L59 20.3L54.2 25.1C60.55 25.15 66.85 27.5 71.7 32.3C80.2 40.85 81.25 54.1 74.85 63.8ZM68.45 70.85L54.3 85L49 79.7L53.75 74.95C47.45 74.9 41.15 72.45 36.35 67.65C27.8 59.1 26.75 45.9 33.15 36.2L38.65 41.7C35.1 48.35 36 56.75 41.6 62.35C45.1 65.85 49.75 67.55 54.4 67.4L49 62L54.3 56.7L68.45 70.85Z" fill="#333533"/>
</g>
<defs>
<filter id="filter0_d" x="0" y="0" width="108" height="108" filterUnits="userSpaceOnUse" color-interpolation-filters="sRGB">
<feFlood flood-opacity="0" result="BackgroundImageFix"/>
<feColorMatrix in="SourceAlpha" type="matrix" values="0 0 0 0 0 0 0 0 0 0 0 0 0 0 0 0 0 0 127 0"/>
<feOffset dy="4"/>
<feGaussianBlur stdDeviation="2"/>
<feColorMatrix type="matrix" values="0 0 0 0 0 0 0 0 0 0 0 0 0 0 0 0 0 0 0.25 0"/>
<feBlend mode="normal" in2="BackgroundImageFix" result="effect1_dropShadow"/>
<feBlend mode="normal" in="SourceGraphic" in2="effect1_dropShadow" result="shape"/>
</filter>
</defs>
</svg>
